<svg version="1" xmlns="http://www.w3.org/2000/svg" width="497.333" height="497.333" viewBox="0 0 373.000000 373.000000"><path d="M185.6 23.7c-5.6 11.6-15.9 25.7-26 35.8-15.7 15.6-32.3 26-53.6 33.6l-10.5 3.7v25.3c.1 35 3 58.3 11 85.8 5.3 18.4 17.2 44.7 24.5 54.1l2 2.5v-11.7c0-11.1-.1-11.8-2.6-14.7-1.4-1.7-3.2-3.1-4-3.1-.9 0-1.4-1.1-1.4-3v-3h14v-5c0-4.3.3-5 2-5 1.9 0 2-.7 2-16.5 0-15.3-.1-16.6-2-18.2-1.2-1.1-2-3-2-5 0-3.3 0-3.3-5-3.3h-5v-9h6.7c5.2 0 7.4-.5 9.8-2.2 4.7-3.2 12.5-14.2 18.9-26.6 3.1-6.1 6.9-12.1 8.5-13.4 1.6-1.4 3.1-3.4 3.5-4.5.3-1 2.2-2.7 4.1-3.6 3.8-1.8 4.3-3.8 2.3-8.2-1-2.2-.9-3.2.4-5.8 1.2-2.3 1.9-7.4 2.3-18.9.5-11 1.1-16.1 2-16.8 2.2-1.9 2.7.4 3.7 17.7.6 11.8 1.3 17.1 2.4 18.8 1.4 2.1 1.4 2.7 0 5.4-2.3 4.4-2 5.5 2.4 8 2.2 1.2 4 2.8 4 3.6 0 .7 1.3 2.3 3 3.5 1.8 1.3 5.1 6.3 9 13.8 7.1 13.7 14.7 24.4 19.3 27.2 2.3 1.5 5 2 10 2h6.7v8.9l-5.2.3c-5.3.3-5.3.3-5.6 3.8-.2 1.9-1 3.9-1.8 4.3-2.1 1.2-2.1 34.7 0 34.7 1.1 0 1.6 1.4 1.8 4.7l.3 4.8 6.8.3c6.7.3 6.7.3 6.7 3.2 0 2-.6 3.1-2 3.5-4 1.3-5.3 5.1-5.8 16.4-.6 15.6-.4 15.9 5.2 7.3 11.6-17.8 23.1-47.1 28.1-71.4 4.5-22.3 5.7-36.4 5.9-64.7l.1-26.3-8.7-2.9c-23.7-7.7-46.6-22.8-62.3-40.9-6.8-7.8-15.1-20.1-19.4-28.8-1.7-3.4-3.3-6.2-3.4-6.2-.2 0-1.5 2.6-3.1 5.7z"/><path d="M57.7 99.2c-6.2 8.3-6.2 19.1-.2 27.3 1.7 2.4 2.3 5 2.8 12.5l.7 9.5-3.7-3.9c-6.6-6.8-13.6-8.5-15.4-3.9-3.4 8.9 5.9 23.7 16.6 26.4 3.3.8 4.6 1.7 5 3.3 1 4.7 3.5 17.8 3.5 18.3 0 .2-1.9-1.1-4.1-3.1-3.8-3.2-12.1-6.2-14.1-5-.4.3-.8 2.8-.8 5.5 0 10.6 9 20.4 20.6 22.3l4 .7 2.8 8.2c1.5 4.5 3.5 10.3 4.6 12.8l1.9 4.7-5.7-2.9c-5.4-2.7-8.1-3.2-14.4-3-2.4.1-2.8.5-2.8 3.1 0 10 15.7 21.4 26.8 19.5 3.7-.6 3.8-.5 5.9 3.9 3.4 7 12.9 22 19.3 30.5 13.8 18.3 29.1 33.1 46.7 45.2 10.7 7.3 28.6 16.9 31.5 16.9 2.8 0 19.8-9.1 30.5-16.3 24.9-16.8 46.9-41.1 63.3-69.9 6.1-10.6 6.1-10.7 9.4-10.1 10.9 1.7 26.6-10.1 26.6-20.1 0-2.1-.5-2.6-2.7-2.7-7.1-.3-8.8.2-18.7 4.9-.5.3-.6-.3-.1-1.4.4-1.1 2.4-6.6 4.5-12.4l3.8-10.5 4.4-1.1c8.7-2.2 15.3-7.5 18.2-14.6 1.7-3.9 2.2-12.3.8-13.2-1.7-1-9.8 1.6-13.7 4.3l-4.1 2.9 1.9-9.8 1.9-9.8 4.2-1.2c10.6-3.1 18.7-15 16.9-24.8-.3-1.9-1.2-3.6-2-3.9-2.7-1-9.4 1.8-13.1 5.5l-3.7 3.7.3-8.5c.3-6.6.8-8.9 2.2-10.5 3-3.2 6-10.7 6-15.1 0-5.1-1.6-10-4.7-14.2-3-4-5.4-4.1-8.6-.2-6 7-6.3 18.8-.8 26.6l3.2 4.6-.7 10.6c-.6 8.5-.9 10.3-1.8 8.8-3.3-5.7-10.5-11.6-14-11.6-1.4 0-3.6 6.4-3.6 10.3 0 9 4.5 17.1 11.5 20.8l4.2 2.2-2 9.1c-1.1 5-2.4 10.2-2.9 11.5-.9 2.4-1 2.3-3.2-2.6-2.5-5.3-7.4-9.7-10.3-9.1-5.5 1-7.5 14.7-3.4 23.1 2.1 4.3 6.4 9 9.1 9.9 1 .3-2.6 10.3-6.3 17.3l-1.5 3-.7-3c-1.1-4.7-5.3-11.3-7.6-12-4.5-1.4-9.8 7.4-9.9 16.3 0 6.1 2 11.6 5.7 15.4l2.6 2.7-4.3 6.8c-19.9 31.7-51.3 60.6-82.3 75.4l-4.8 2.4-7.6-4c-29.6-15.2-56.5-39.9-76.9-70.6l-6.6-9.8 3.4-3.4c5.3-5.2 7.2-14.3 4.7-21.8-1.6-4.7-5.7-9.9-7.8-9.9-3.5 0-7.8 6.4-8.9 13.3l-.8 4.2-4.2-9.8c-2.3-5.4-4.2-10.4-4.2-11 0-.7 1.5-2.2 3.4-3.4 2.1-1.3 4.4-4.3 6.1-7.7 2.3-4.7 2.7-6.6 2.3-11.9-.3-4.5-1-7.2-2.6-9.5-2.2-3-2.5-3.1-5-1.8-3.9 2-6.8 5.5-9 10.6l-1.9 4.5-2.7-11.4c-2.8-11.5-2.8-14.1-.2-14.1 2.3 0 8.5-5.9 10.7-10.2 3-5.8 3.5-12 1.5-17.3-1-2.5-2.3-4.5-2.8-4.5-2.8 0-9.9 5.4-12.1 9.1l-2.5 4.1-.6-2.8c-.3-1.6-.6-6.3-.8-10.4-.2-6.9 0-7.9 2.5-11.2 6.5-8.4 6.2-21.4-.5-28.5-3-3.2-5.3-2.9-8.1.9z"/><path d="M178.5 196.7c-7.4 3.8-12.4 11.4-12.5 18.5v3.8h18v-12c0-13-.1-13.2-5.5-10.3zM193 206.9V219H211.3l-.7-4.6c-1.1-8.6-7.7-16.7-15.3-18.9-2.3-.6-2.3-.6-2.3 11.4zM166 249v21h18l-.2-20.8-.3-20.7-8.7-.3-8.8-.3V249zM193 249v21h18v-42h-18v21z"/></svg>