<svg version="1" xmlns="http://www.w3.org/2000/svg" width="256" height="256" viewBox="0 0 192.000000 192.000000"><path d="M81 24.8c0 1.5 2.8 7.2 3.5 7.2.3 0 .5-.9.5-1.9 0-2.1-3.9-7.3-4-5.3zM102.7 25.6c-.4.4-.7 1.9-.6 3.3v2.6l1-2.4c1-2.6.8-4.7-.4-3.5zM119.6 33.8c-1 1.9-1.6 3.6-1.3 3.8.7.8 3.9-4.6 3.4-5.9-.2-.7-1.2.3-2.1 2.1zM65 35.9c0 .5 1.5 2 3.2 3.3l3.3 2.3-2.3-3.3C66.9 35.1 65 34 65 35.9zM53 54.3c0 1.3 6.9 4.1 7.8 3.2.2-.2-1.4-1.3-3.7-2.5-3.1-1.5-4.1-1.7-4.1-.7zM83.8 53.7l-4.8.4v113.2l12.3-.7c14.3-.8 19.9-2.9 23.2-8.6 1.9-3.3 2-5.5 2.3-46.5.2-23.7 0-44.9-.3-47.3-.4-2.7-1.7-5.5-3.5-7.5l-2.8-3.2-10.9-.1c-5.9-.1-12.9.1-15.5.3zm20.3 12.9c.6 1.7.9 18 .7 44-.3 35.2-.5 41.6-1.8 42.8-.8.8-3.9 1.8-6.7 2.2l-5.3.7V64h6c5.6 0 6.1.2 7.1 2.6zM50 76c0 .5 1.6 1 3.5 1s3.5-.5 3.5-1c0-.6-1.6-1-3.5-1s-3.5.4-3.5 1z"/></svg>