<?xml version="1.0" encoding="UTF-8"?>
<svg width="56px" height="35px" viewBox="0 0 56 35" version="1.1" xmlns="http://www.w3.org/2000/svg" xmlns:xlink="http://www.w3.org/1999/xlink">
    <!-- Generator: Sketch 47.1 (45422) - http://www.bohemiancoding.com/sketch -->
    <title>client-image4</title>
    <desc>Created with Sketch.</desc>
    <defs>
        <linearGradient x1="9.6442%" y1="37.113%" x2="9.6604%" y2="35.7232%" id="linearGradient-1">
            <stop stop-color="#F3F0EF" offset="0%"></stop>
            <stop stop-color="#EDDCD1" offset="100%"></stop>
        </linearGradient>
    </defs>
    <g id="Page-1" stroke="none" stroke-width="1" fill="none" fill-rule="evenodd">
        <g id="Desktop-HD" transform="translate(-514.000000, -106.000000)">
            <g id="client-image4" transform="translate(514.000000, 106.000000)">
                <g id="Group" transform="translate(16.000000, 0.000000)">
                    <path d="M22.7230769,8.57622378 C22.7230769,8.57622378 23.1636364,7.93986014 23.2321678,7.56783217 C23.3006993,7.1958042 23.2909091,6.98531469 23.1048951,6.63776224 C23.0363636,6.50559441 22.8405594,6.31958042 22.5076923,6.23146853 C22.2874126,6.17272727 22.0475524,6.16293706 21.841958,6.06013986 C21.5433566,5.91328671 21.2643357,5.76153846 21.234965,5.74685315 C21.234965,5.74685315 20.672028,5.22307692 19.972028,5.14965035 C19.972028,5.14965035 18.0972028,2.21748252 14.4944056,1.92867133 C14.4944056,1.92867133 9.73636364,1.19440559 6.58881119,6.1972028 C6.58881119,6.1972028 5.94755245,7.38181818 5.15454545,8.84055944 C4.33706294,10.3727273 3.28951049,11.2 2.68251748,11.5867133 C0.372027972,12.5118881 -0.23006993,14.372028 0.0734265734,15.2090909 C0.396503497,16.1048951 1.25314685,16.7706294 1.92867133,17.3433566 C2.58951049,17.9062937 3.27972028,18.2881119 4.02377622,18.7384615 L4.07762238,18.7727273 C7.52867133,20.5937063 11.7727273,20.5153846 14.8909091,19.1986014 C16.3202797,18.5965035 17.5391608,17.734965 18.3958042,16.6776224 C19.1153846,15.7965035 19.5020979,14.8370629 19.6146853,13.8384615 L19.6244755,13.8237762 C19.6244755,13.8237762 20.3636364,13.3195804 20.8384615,12.7272727 C21.327972,12.1153846 21.5384615,11.3517483 21.5384615,11.3517483 C21.8223776,10.9944056 22.0426573,10.6468531 22.2188811,10.313986 C22.2188811,10.313986 22.7475524,9.27622378 22.7230769,8.57622378 L22.7230769,8.57622378 Z" id="Shape" fill="#EFEFEF" fill-rule="nonzero" opacity="0.96"></path>
                    <path d="M12.8839161,10.7839161 C12.2573427,11.1902098 11.2195804,11.7923077 10.4461538,11.9293706 C10.1622378,11.9832168 9.87342657,12.0223776 9.58461538,12.0566434 C9.16363636,12.1055944 8.74265734,12.1398601 8.32167832,12.1545455 C7.90559441,12.1692308 7.48951049,12.1496503 7.07342657,12.1594406 C5.7027972,12.1937063 3.50979021,11.713986 2.16853147,12.2230769 C0.998601399,12.6685315 -0.190909091,14.5531469 0.655944056,15.2727273 C1.77202797,16.2223776 3.95524476,15.7083916 4.64055944,15.5223776 C11.1412587,13.5398601 14.0293706,9.92727273 14.0293706,9.92727273 C14.0293706,9.92727273 13.5104895,10.3727273 12.8839161,10.7839161 L12.8839161,10.7839161 Z" id="Shape" fill="#68686B" fill-rule="nonzero" opacity="0.96"></path>
                    <path d="M6.4979021,11.806993 L6.3979021,11.806993 L6.4979021,11.806993 Z" id="Shape" fill="url(#linearGradient-1)" fill-rule="nonzero"></path>
                    <path d="M22.7230769,8.57622378 C22.7426573,9.1048951 22.3951049,9.93706294 22.3951049,9.93706294 C22.4685315,9.75104895 22.4391608,9.44265734 22.4440559,9.24195804 C22.4538462,8.61538462 22.3265734,7.99370629 22.1307692,7.40629371 C21.9496503,6.86783217 21.7342657,6.27552448 21.3328671,5.85944056 C21.3083916,5.83496503 21.1958042,5.69300699 21.1566434,5.69300699 C21.1566434,5.69300699 22.2874126,6.3048951 22.727972,8.59090909" id="Shape" fill="#CACACA" fill-rule="nonzero" opacity="0.96"></path>
                    <path d="M21.0587413,12.4237762 C21.2398601,12.1006993 21.4699301,11.7482517 21.5433566,11.3174825 C21.651049,10.6566434 21.5384615,9.88811189 21.4552448,9.33986014 C20.9951049,6.37832168 19.9034965,3.93076923 16.3888112,2.36433566 C15.8846154,2.13916084 15.3167832,1.97272727 14.7587413,1.94825175 L14.7048951,2.17342657 C15.1601399,2.19300699 15.6545455,2.32517483 16.0853147,2.47202797 C16.9615385,2.77552448 17.9307692,3.37762238 18.6062937,4.00909091 C19.5902098,4.92937063 20.2216783,6.22657343 20.6034965,7.62167832 C20.9951049,9.06083916 21.1174825,10.6076923 21.0881119,11.9636364 C21.0685315,12.1202797 21.0636364,12.2769231 21.0587413,12.4237762 L21.0587413,12.4237762 Z" id="Shape" fill="#CACACA" fill-rule="nonzero" opacity="0.96"></path>
                    <path d="M14.2006993,9.77552448 C11.6503497,4.65034965 8.84545455,1.04265734 8.84545455,1.04265734 C8.49300699,0.655944056 8.28741259,0.685314685 8.28741259,0.685314685 C8.28741259,0.685314685 8.21888112,0.69020979 8.04265734,0.71958042 L7.92027972,0.748951049 C6.22657343,1.27272727 5.21328671,2.22727273 4.78251748,2.65314685 C4.66013986,2.77552448 4.5965035,2.84895105 4.5965035,2.84895105 C4.5965035,2.84895105 4.44475524,2.9958042 4.55244755,3.50979021 C4.55244755,3.50979021 4.58671329,3.62727273 4.66503497,3.86223776 C4.88041958,4.50839161 5.13006993,5.13986014 5.3993007,5.76643357 C5.88391608,6.90699301 6.41258741,8.03286713 6.98531469,9.13426573 C7.83216783,10.7594406 8.4048951,11.8216783 9.36433566,13.3783217 M14.2006993,9.77552448 C11.6503497,4.65034965 8.84545455,1.04265734 8.84545455,1.04265734 C8.49300699,0.655944056 8.28741259,0.685314685 8.28741259,0.685314685 C8.28741259,0.685314685 8.21888112,0.69020979 8.04265734,0.71958042 L7.92027972,0.748951049 C6.22657343,1.27272727 5.21328671,2.22727273 4.78251748,2.65314685 C4.66013986,2.77552448 4.5965035,2.84895105 4.5965035,2.84895105 C4.5965035,2.84895105 4.44475524,2.9958042 4.55244755,3.50979021 C4.55244755,3.50979021 4.58671329,3.62727273 4.66503497,3.86223776 C4.88041958,4.50839161 5.13006993,5.13986014 5.3993007,5.76643357 C5.88391608,6.90699301 6.41258741,8.03286713 6.98531469,9.13426573 C7.83216783,10.7594406 8.4048951,11.8216783 9.36433566,13.3783217" id="Shape"></path>
                    <path d="M14.6951049,9.55034965 C15.7916084,8.42937063 16.1048951,6.95594406 16.1048951,6.95594406 C15.727972,7.64615385 15.0034965,8.27762238 14.5972028,8.57132867 L14.6951049,9.55034965 Z" id="Shape" fill="#CACACA" fill-rule="nonzero" opacity="0.96"></path>
                    <path d="M5.80559441,6.70629371 C5.67342657,6.65734266 5.5020979,6.5986014 5.36013986,6.55454545 C5.77622378,7.49440559 6.21678322,8.41958042 6.69160839,9.33006993 C7.52867133,10.9405594 8.0965035,11.9979021 9.04125874,13.534965 L9.35454545,13.3685315 C7.51398601,10.3923077 6.54475524,8.24335664 5.80559441,6.70629371 Z" id="Shape" fill="#1B1B1B" fill-rule="nonzero"></path>
                    <path d="M11.8559441,11.7286713 C13.158042,10.7447552 14.2055944,9.78041958 14.2055944,9.78041958 C11.6503497,4.65034965 8.84545455,1.04265734 8.84545455,1.04265734 C8.49300699,0.655944056 8.28741259,0.685314685 8.28741259,0.685314685 C8.28741259,0.685314685 8.21888112,0.69020979 8.04265734,0.71958042 L7.92027972,0.748951049 C6.22657343,1.27272727 5.21328671,2.22727273 4.78251748,2.65314685 C4.66013986,2.77552448 4.5965035,2.84895105 4.5965035,2.84895105 C4.5965035,2.84895105 4.44475524,2.9958042 4.55244755,3.50979021 C4.55244755,3.50979021 4.58671329,3.62727273 4.66503497,3.86223776 C4.88041958,4.50839161 5.13006993,5.13986014 5.3993007,5.76643357 C5.88391608,6.90699301 6.41258741,8.03286713 6.98531469,9.13426573 C7.83216783,10.7594406 8.4048951,11.8216783 9.36433566,13.3783217 C9.35944056,13.3783217 10.9405594,12.458042 11.8559441,11.7286713 Z" id="Shape-Copy" fill="#C1C1C1" fill-rule="nonzero"></path>
                    <path d="M16.1538462,7.02937063 C20.6965035,11.8755245 20.4174825,19.2622378 9.37412587,20.1629371 C14.9055944,20.3391608 18.6944056,17.3629371 19.3699301,14.9398601 C20.3195804,11.527972 17.3776224,8.02307692 16.1538462,7.02937063 Z" id="Shape" fill="#CACACA" fill-rule="nonzero" opacity="0.96"></path>
                    <path d="M4.07272727,10.4755245 C3.18671329,11.4888112 2.3006993,11.758042 2.3006993,11.758042 C1.44405594,10.7545455 0.695104895,9.82447552 0.851748252,8.7965035 C1.0965035,7.23496503 2.65804196,7.01468531 2.65804196,7.01468531 C3.3041958,6.46153846 3.46083916,6.8041958 3.46083916,6.8041958 C8.97762238,7.81258741 4.07272727,10.4755245 4.07272727,10.4755245 Z" id="Shape" fill="#1B1B1B" fill-rule="nonzero"></path>
                    <path d="M5.36013986,6.55454545 C4.74335664,6.35874126 4.05314685,6.2020979 3.45104895,6.07972028 C2.46713287,5.87412587 1.62027972,6.6034965 1.00839161,7.90559441 C0.768531469,8.41468531 0.695104895,8.86993007 0.773426573,9.38391608 C0.822377622,9.72167832 1.08671329,10.1622378 1.35104895,10.5440559 C0.876223776,9.8048951 0.641258741,9.12447552 1.41958042,9.24685315 C1.41958042,9.24685315 3.86713287,9.71678322 8.21398601,13.9853147 L9.03636364,13.5398601 C8.09160839,12.0027972 7.52377622,10.9454545 6.68671329,9.33496503 C6.21678322,8.41958042 5.77132867,7.48951049 5.36013986,6.55454545 Z" id="Shape" fill="#383839" fill-rule="nonzero"></path>
                    <path d="M16.4083916,2.35944056 C16.4083916,2.35944056 15.8552448,2.15384615 15.5615385,2.09020979 C15.2678322,2.02657343 14.748951,1.94825175 14.748951,1.94825175 C14.4160839,3.15734266 14.2251748,5.36993007 14.6951049,9.55034965 C14.6951049,9.55034965 12.7272727,11.2881119 10.265035,12.8251748 C10.265035,12.8251748 9.35454545,6.33916084 11.620979,1.83566434 C11.620979,1.83566434 12.1398601,0.68041958 13.0797203,0.24965035 C13.0797203,0.24965035 15.7573427,-0.685314685 16.3104895,1.42447552 C16.4573427,1.99230769 16.472028,2.38391608 16.472028,2.38391608 L16.4083916,2.35944056 L16.4083916,2.35944056 Z" id="Shape" fill="#68686B" fill-rule="nonzero"></path>
                    <path d="M10.6713287,3.64685315 C9.27622378,7.93006993 9.98601399,12.9867133 9.98601399,12.9867133 C10.6762238,12.5559441 11.3272727,12.1104895 11.9048951,11.6895105 C13.1874126,10.7202797 14.2055944,9.77552448 14.2055944,9.77552448 C12.972028,7.2986014 11.6797203,5.17902098 10.6713287,3.64685315 Z" id="Shape" fill="#68686B" fill-rule="nonzero"></path>
                    <path d="M16.4916084,2.39370629 C16.4916084,2.39370629 16.4769231,1.96293706 16.3251748,1.3951049 C15.772028,-0.714685315 13.0944056,0.22027972 13.0944056,0.22027972 C12.1545455,0.651048951 11.6356643,1.80629371 11.6356643,1.80629371 C9.36923077,6.30979021 10.2797203,12.7958042 10.2797203,12.7958042 C12.741958,11.2587413 14.7,9.52097902 14.7,9.52097902 C13.7552448,1.16013986 15.3657343,0.396503497 15.8601399,0.704895105 C16.3545455,1.01328671 16.4328671,2.36923077 16.4328671,2.36923077 L16.4916084,2.39370629 Z" id="Shape" fill="#ACACB0" fill-rule="nonzero"></path>
                </g>
                <path d="M5.62937063,34.5524476 C2.20769231,34.5524476 0,32.3006993 0,28.8153846 C0,27.2 0.558041958,25.7314685 1.57132867,24.6888112 C2.64825175,23.5825175 4.16083916,23 5.95244755,23 C7.48951049,23 8.73776224,23.3622378 9.66783217,24.0818182 C10.6223776,24.820979 11.0090909,25.751049 11.1657343,26.4020979 L11.2097902,26.5832168 L9.1,26.5832168 L9.06083916,26.4902098 C8.58111888,25.3153846 7.53356643,24.7230769 5.93776224,24.7230769 C4.76293706,24.7230769 3.79370629,25.1195804 3.13286713,25.8783217 C2.51118881,26.5881119 2.18321678,27.572028 2.18321678,28.7223776 C2.18321678,31.2531469 3.61748252,32.8244755 5.92307692,32.8244755 C7.97412587,32.8244755 9.1,31.8013986 9.1,29.9412587 L9.1,29.7993007 L5.81048951,29.7993007 L5.81048951,28.0566434 L11.1314685,28.0566434 L11.1314685,34.3223776 L9.52097902,34.3223776 L9.4965035,34.2097902 C9.45244755,34.013986 9.4034965,33.5440559 9.37902098,33.1181818 C8.56643357,34.1167832 7.41608392,34.5524476 5.62937063,34.5524476 Z M51.1979021,34.5377622 C49.8321678,34.5377622 48.7111888,34.0776224 47.9524476,33.2160839 C47.3013986,32.4671329 46.9391608,31.4440559 46.9391608,30.3230769 C46.9391608,29.1433566 47.3405594,28.0713287 48.065035,27.3027972 C48.8335664,26.4902098 49.9055944,26.0643357 51.1685315,26.0643357 C52.5538462,26.0643357 53.6748252,26.5391608 54.4090909,27.4300699 C55.0160839,28.1692308 55.3538462,29.1825175 55.3538462,30.279021 L55.3538462,30.8517483 L48.951049,30.8517483 C49.0881119,32.1097902 49.979021,32.9174825 51.2566434,32.9174825 C52.2405594,32.9174825 52.8573427,32.5944056 53.2636364,31.865035 L53.3076923,31.7916084 L55.3097902,31.7916084 L55.2412587,31.9874126 C54.9867133,32.7020979 54.5461538,33.3041958 53.9685315,33.734965 C53.2391608,34.2685315 52.3090909,34.5377622 51.1979021,34.5377622 Z M53.2881119,29.4125874 C53.0972028,27.8118881 51.7363636,27.6356643 51.148951,27.6356643 C49.5531469,27.6356643 49.1027972,28.6832168 48.9853147,29.4125874 L53.2881119,29.4125874 L53.2881119,29.4125874 Z M32.8706294,34.5377622 C31.5685315,34.5377622 30.4622378,34.0923077 29.679021,33.2552448 C28.9594406,32.4867133 28.5629371,31.4440559 28.5629371,30.3083916 C28.5629371,29.1629371 28.9741259,28.1055944 29.7132867,27.3370629 C30.5160839,26.5048951 31.6321678,26.0643357 32.9440559,26.0643357 L32.9538462,26.0643357 C35.793007,26.0643357 37.2811189,28.1937063 37.2811189,30.2937063 C37.2811189,32.4083916 35.9153846,34.5377622 32.8706294,34.5377622 Z M32.8902098,27.713986 C31.8328671,27.713986 30.5944056,28.3944056 30.5944056,30.3083916 C30.5944056,32.0020979 31.7692308,32.8881119 32.9293706,32.8881119 C34.627972,32.8881119 35.234965,31.5615385 35.234965,30.3230769 C35.234965,29.0258741 34.5153846,27.713986 32.9,27.713986 L32.8902098,27.713986 Z M23.1685315,34.5377622 C21.8664336,34.5377622 20.7601399,34.0923077 19.9769231,33.2552448 C19.2573427,32.4867133 18.8608392,31.4440559 18.8608392,30.3083916 C18.8608392,29.1629371 19.272028,28.1055944 20.0111888,27.3370629 C20.813986,26.5048951 21.9300699,26.0643357 23.241958,26.0643357 L23.2517483,26.0643357 C26.0909091,26.0643357 27.579021,28.1937063 27.579021,30.2937063 C27.579021,32.4083916 26.2132867,34.5377622 23.1685315,34.5377622 L23.1685315,34.5377622 Z M23.1881119,27.713986 C22.1307692,27.713986 20.8923077,28.3944056 20.8923077,30.3083916 C20.8923077,32.0020979 22.0671329,32.8881119 23.2272727,32.8881119 C24.9258741,32.8881119 25.5328671,31.5615385 25.5328671,30.3230769 C25.5328671,29.0258741 24.8132867,27.713986 23.1979021,27.713986 L23.1881119,27.713986 L23.1881119,27.713986 Z M13.2020979,34.3272727 L13.2020979,28.3944056 L13.206993,28.3944056 C13.206993,27.7433566 13.206993,27.0776224 13.1923077,26.4265734 L13.1874126,26.2748252 L15.1258741,26.2748252 L15.1405594,26.4020979 C15.1601399,26.5832168 15.1846154,27.058042 15.1944056,27.5475524 C15.7965035,26.6076923 16.8146853,26.079021 18.0629371,26.079021 L18.151049,26.079021 L18.293007,26.0839161 L18.293007,27.9783217 L18.1461538,27.9734266 L18.0727273,27.9734266 C16.2468531,27.9734266 15.2041958,29.0944056 15.2041958,31.0426573 L15.2041958,34.3272727 L13.2020979,34.3272727 L13.2020979,34.3272727 Z M41.0993007,34.3223776 L37.6041958,26.2748252 L39.7776224,26.2748252 L39.8118881,26.3678322 C40.1937063,27.3762238 40.7321678,28.6783217 41.206993,29.8286713 C41.6132867,30.8076923 41.9755245,31.6839161 42.1811189,32.2321678 C42.4601399,31.4293706 43.0475524,29.9363636 44.5307692,26.3678322 L44.5699301,26.2797203 L46.6307692,26.2797203 L43.1503497,34.3272727 L41.0993007,34.3272727 L41.0993007,34.3223776 Z" id="Shape" fill="#383839" fill-rule="nonzero"></path>
            </g>
        </g>
    </g>
</svg>