<?xml version="1.0" encoding="utf-8"?>
<!-- Generator: Adobe Illustrator 18.1.1, SVG Export Plug-In . SVG Version: 6.00 Build 0)  -->
<svg version="1.1" id="Layer_1" xmlns="http://www.w3.org/2000/svg" xmlns:xlink="http://www.w3.org/1999/xlink" x="0px" y="0px"
	 viewBox="0 0 104.3 71.5" enable-background="new 0 0 104.3 71.5" xml:space="preserve">
<g>
	<g>
		<path d="M33.4,21.7c0,13.4,0,26.9,0,40.3c0,5.5-2.9,8.6-8.3,9c-4.2,0.3-5.7,0.4-10.7,0.4c0-18.9,0-37.8,0-56.6
			c5,0,6.5-0.1,10.7-0.4C30.4,14,33.4,16.3,33.4,21.7z M27.4,23.3c0-1.3-0.2-2.3-0.8-2.8c-0.5-0.5-1.4-0.8-2.3-0.7
			c-1.5,0.1-1.9,0.2-3.9,0.2c0,15.3,0,30.6,0,45.9c2-0.1,2.4-0.1,4-0.2c0.9-0.1,1.7-0.4,2.2-1c0.5-0.6,0.8-1.6,0.8-2.9
			C27.4,49,27.4,36.1,27.4,23.3z"/>
		<path d="M58.4,9.4c0,16.6,0,33.3,0,49.9c0,1.9-0.9,3.7-2.2,5.3c-1.3,1.6-3,2.6-4.9,3.1c-1.8,0.3-2.7,0.5-4.5,0.8
			c-1,0.2-1.9,0.1-2.8-0.1c-0.9-0.2-1.7-0.6-2.3-1.2c-0.6-0.5-1.2-1.2-1.6-2c-0.4-0.8-0.6-1.7-0.6-2.7c0-16.1,0-32.2,0-48.3
			c0-0.4,0.2-0.8,0.6-1.2c0.4-0.4,0.8-0.6,1.3-0.6c1.6-0.3,2.1-0.4,4.1-0.7c0,16.3,0,32.6,0,48.9c0,0.8,0.3,1.5,0.8,2
			c0.6,0.5,1.3,0.7,2.1,0.5c0.4-0.1,0.5-0.1,0.9-0.2c0.9-0.2,1.6-0.6,2.2-1.3c0.6-0.7,0.9-1.5,0.9-2.4c0-16.3,0-32.6,0-48.9
			C54.4,10.1,55.4,9.8,58.4,9.4z"/>
		<path d="M78.7,18.1c-0.3,0.2-1,0.5-1.9,1.1c-0.9,0.6-1.5,1.1-2.5,1.5c0-2.6,0-3.9,0-6.5c0-0.9-0.2-1.6-0.8-2.1
			c-0.6-0.5-1.3-0.7-2.2-0.5c-0.8,0.1-1.5,0.6-2.1,1.3c-0.6,0.7-0.9,1.5-0.9,2.4c0,2.2,0,3.2,0,5.4c0,0.7,0.2,1.3,0.4,2.1
			c0.2,0.6,0.4,1.4,0.7,2.3c0.3,0.9,0.8,1.8,1.4,2.8c2.7,4.7,4.1,7,6.8,11.7c0.4,1,0.9,1.9,1.2,2.9c0.3,0.8,0.7,1.8,0.9,2.8
			c0.3,1,0.4,2,0.4,2.9c0,2.8,0,4.3,0,7.1c0,2-0.7,3.8-2.1,5.4c-1.4,1.6-3.1,2.6-5.1,3c-1.5,0.3-2.2,0.4-3.6,0.6
			c-1.9,0.2-3.7-0.2-5-1.3c-1.3-1.1-2.1-2.6-2.1-4.5c0-2.3,0-3.5,0-5.8c0-0.9,0.3-1.7,0.6-2.2c0.3-0.5,0.7-0.9,1.1-1.2
			c0.3-0.2,0.9-0.5,1.8-1.1c0.9-0.6,1.5-1.1,2.5-1.6c0,4,0,5.9,0,9.9c0,0.8,0.3,1.5,0.9,2c0.6,0.5,1.3,0.6,2.2,0.5
			c0.9-0.2,1.5-0.6,2.1-1.3c0.6-0.7,0.8-1.5,0.8-2.3c0-2.6,0-3.8,0-6.4c0-0.7-0.1-1.3-0.3-2.1c-0.2-0.6-0.4-1.4-0.7-2.3
			c-0.3-0.9-0.7-1.8-1.3-2.8c-2.8-4.7-4.2-7.1-6.9-11.7c-0.5-1-0.9-1.9-1.2-2.8c-0.3-0.8-0.7-1.7-1-2.7c-0.2-1-0.5-2-0.5-2.9
			c0-2.3,0-3.5,0-5.8c0-1,0.3-2,0.7-2.9c0.4-1,0.9-1.8,1.6-2.7C65.3,9.3,66,8.6,66.9,8c0.9-0.6,1.8-1,2.8-1.1
			c1.5-0.3,2.2-0.4,3.6-0.6c0.9-0.2,1.8-0.1,2.7,0.2c0.9,0.3,1.6,0.7,2.2,1.3c0.6,0.6,1.1,1.3,1.5,2.2c0.4,0.9,0.6,1.7,0.6,2.7
			c0,0.9,0,1.3,0,2.2c0,0.9-0.2,1.7-0.5,2.2C79.5,17.4,79.1,17.8,78.7,18.1z"/>
		<path d="M104.3,60c-2.5,0-3.7,0-6.1,0.2c-3.1-10-4.8-15-7.8-24.8c0,10.2,0,15.2,0,25.4c-2,0.2-3,0.4-6,0.7c0-18.2,0-36.4,0-54.6
			c0-0.9,0.4-1.6,0.8-1.9c0.5-0.3,0.9-0.5,1.3-0.6C88,4.1,88.4,4,90.4,3.9c0,8.3,0,12.4,0,20.7c3-8.5,4.3-12.7,7.2-21.1
			c2.4-0.1,3.6-0.2,6-0.2c-3.6,10.3-5.4,15.5-9,26C97.8,39.5,101.1,49.8,104.3,60z"/>
	</g>
</g>
<g>
	<path fill="#1D1F1D" d="M17.7,4.3c-0.1-1.7-0.6-3-1.6-4.1c-0.2-0.2-0.4-0.4-0.7-0.2c-0.2,0.1-0.3,0.4-0.2,0.6
		C16,1.8,16.3,3.3,17.7,4.3z"/>
	<path fill="#1D1F1D" d="M2.3,14.8c-0.4-0.3-0.7-0.3-1,0.2c-0.3,0.5,0.1,0.7,0.4,0.8C2.4,16,3,16.3,3.7,16.5
		c0.7,0.2,1.4,0.5,2.2,0.3C4.7,16,3.5,15.5,2.3,14.8z"/>
	<path fill="#1D1F1D" d="M36.2,3.6c-0.2-0.2-0.3-0.1-0.5,0c-0.2,0.1-0.4,0.2-0.5,0.4c-0.6,1.3-1.3,2.5-1.7,3.8
		c0.1,0,0.2,0.1,0.3,0.1c0.8-1.3,1.7-2.6,2.5-3.8C36.3,3.9,36.4,3.7,36.2,3.6z"/>
	<path fill="#1D1F1D" d="M10.7,8.7c0.1-0.1,0.2-0.2,0.3-0.2c-0.9-0.9-1.8-1.8-2.7-2.8C8.2,5.6,8.1,5.6,8,5.6
		C7.8,5.4,7.6,5.4,7.4,5.7c-0.2,0.2-0.3,0.5,0,0.7C8.5,7.2,9.5,8.1,10.7,8.7z"/>
	<path fill="#1D1F1D" d="M0.4,25.4C0.1,25.4,0,25.7,0,26c0,0.3,0.2,0.5,0.5,0.5c1.1-0.1,2.3,0,3.6-0.4C2.9,25.3,1.6,25.5,0.4,25.4z"
		/>
	<path fill="#1D1F1D" d="M26.1,1c0,1-0.2,2,0.3,3.2c0.2-1.1,0.4-2.1,0.6-3c0-0.3,0.2-0.6-0.2-0.7C26.4,0.4,26.1,0.7,26.1,1z"/>
</g>
</svg>
